<?xml version="1.0" encoding="UTF-8"?>
<svg width="154px" height="32px" viewBox="0 0 154 32" version="1.1" xmlns="http://www.w3.org/2000/svg" xmlns:xlink="http://www.w3.org/1999/xlink">
    <title>Group 2</title>
    <g id="Page-1" stroke="none" stroke-width="1" fill="none" fill-rule="evenodd">
        <g id="Mobile" transform="translate(-156.000000, -18.000000)">
            <g id="Group-2" transform="translate(156.000000, 18.000000)">
                <rect id="Rectangle-17" stroke="#5340BD" stroke-width="3" x="1.5" y="1.5" width="151" height="29" rx="14.5"></rect>
                <g id="Group" transform="translate(16.000000, 8.000000)" stroke="#4838A2" stroke-width="3">
                    <path d="M7,1.5 C5.48121694,1.5 4.10621694,2.11560847 3.1109127,3.1109127 C2.11560847,4.10621694 1.5,5.48121694 1.5,7 C1.5,8.51878306 2.11560847,9.89378306 3.1109127,10.8890873 C4.10621694,11.8843915 5.48121694,12.5 7,12.5 C8.51878306,12.5 9.89378306,11.8843915 10.8890873,10.8890873 C11.8843915,9.89378306 12.5,8.51878306 12.5,7 C12.5,5.48121694 11.8843915,4.10621694 10.8890873,3.1109127 C9.89378306,2.11560847 8.51878306,1.5 7,1.5 Z" id="Oval-7"></path>
                    <line x1="11.4511709" y1="11.4511709" x2="14.0355339" y2="14.0355339" id="Line" fill="#5340BD" stroke-linecap="square" stroke-linejoin="round"></line>
                </g>
                <text id="Search…" fill="#5340BD" font-family="Taviraj-Regular, Taviraj" font-size="12" font-weight="normal">
                    <tspan x="50" y="21">Search…</tspan>
                </text>
            </g>
        </g>
    </g>
</svg>